<svg width="109" height="109" viewBox="0 0 109 109" fill="none" xmlns="http://www.w3.org/2000/svg">
<g clip-path="url(#clip0_5928_10043)">
<path d="M108.933 54.4994C108.933 24.6334 84.7218 0.421875 54.8558 0.421875C24.9898 0.421875 0.77832 24.633 0.77832 54.4994C0.77832 81.4908 20.5538 103.863 46.4062 107.92V70.1312H32.6756V54.4994H46.4062V42.5854C46.4062 29.0323 54.4798 21.5459 66.8319 21.5459C72.7487 21.5459 78.9372 22.6021 78.9372 22.6021V35.9102H72.1184C65.4001 35.9102 63.3055 40.0789 63.3055 44.3556V54.4994H78.3035L75.9059 70.1312H63.3055V107.92C89.1579 103.863 108.933 81.4913 108.933 54.4994Z" fill="#1877F2"/>
<path d="M75.9081 70.1243L78.3056 54.4925H63.3076V44.3488C63.3076 40.0716 65.4027 35.9034 72.1205 35.9034H78.9394V22.5953C78.9394 22.5953 72.7509 21.5391 66.834 21.5391C54.482 21.5391 46.4084 29.0254 46.4084 42.5786V54.4925H32.6777V70.1243H46.4084V107.913C49.2036 108.351 52.0286 108.571 54.858 108.57C57.6873 108.571 60.5124 108.351 63.3076 107.913V70.1243H75.9081Z" fill="white"/>
</g>
<defs>
<clipPath id="clip0_5928_10043">
<rect width="108.155" height="108.155" fill="white" transform="translate(0.77832 0.421875)"/>
</clipPath>
</defs>
</svg>
