<svg width="109" height="109" viewBox="0 0 109 109" fill="none" xmlns="http://www.w3.org/2000/svg">
<g clip-path="url(#clip0_5928_10046)">
<path d="M83.0494 0.421875H25.592C11.5922 0.421875 0.243164 11.7709 0.243164 25.7707V83.2281C0.243164 97.2279 11.5922 108.577 25.592 108.577H83.0494C97.0491 108.577 108.398 97.2279 108.398 83.2281V25.7707C108.398 11.7709 97.0491 0.421875 83.0494 0.421875Z" fill="url(#paint0_radial_5928_10046)"/>
<path d="M83.0494 0.421875H25.592C11.5922 0.421875 0.243164 11.7709 0.243164 25.7707V83.2281C0.243164 97.2279 11.5922 108.577 25.592 108.577H83.0494C97.0491 108.577 108.398 97.2279 108.398 83.2281V25.7707C108.398 11.7709 97.0491 0.421875 83.0494 0.421875Z" fill="url(#paint1_radial_5928_10046)"/>
<path d="M54.3241 12.25C42.8504 12.25 41.4102 12.3003 36.904 12.5052C32.4063 12.7113 29.3361 13.4232 26.65 14.468C23.8709 15.547 21.5139 16.9907 19.1657 19.3396C16.8155 21.6882 15.3718 24.0452 14.2894 26.823C13.2417 29.51 12.529 32.5815 12.3266 37.0771C12.1251 41.5837 12.0723 43.0243 12.0723 54.4985C12.0723 65.9726 12.123 67.4082 12.3274 71.9144C12.5345 76.4121 13.2463 79.4823 14.2903 82.1684C15.3701 84.9475 16.8138 87.3045 19.1628 89.6527C21.5105 92.0029 23.8675 93.4499 26.6445 94.5289C29.3327 95.5737 32.4033 96.2856 36.9002 96.4918C41.4068 96.6967 42.8458 96.747 54.3191 96.747C65.7941 96.747 67.2296 96.6967 71.7358 96.4918C76.2336 96.2856 79.3071 95.5737 81.9953 94.5289C84.7731 93.4499 87.1268 92.0029 89.4741 89.6527C91.8243 87.3045 93.2675 84.9475 94.3504 82.1697C95.3888 79.4823 96.102 76.4113 96.3132 71.9152C96.5156 67.4091 96.5684 65.9726 96.5684 54.4985C96.5684 43.0243 96.5156 41.5845 96.3132 37.0779C96.102 32.5802 95.3888 29.5104 94.3504 26.8243C93.2675 24.0452 91.8243 21.6882 89.4741 19.3396C87.1243 16.9898 84.774 15.5462 81.9928 14.4684C79.2995 13.4232 76.2276 12.7109 71.7299 12.5052C67.2233 12.3003 65.7886 12.25 54.311 12.25H54.3241ZM50.5341 19.8635C51.6591 19.8618 52.9143 19.8635 54.3241 19.8635C65.6048 19.8635 66.9415 19.9041 71.3961 20.1065C75.5153 20.2949 77.7511 20.9831 79.2403 21.5615C81.2121 22.327 82.6177 23.2425 84.0955 24.7216C85.5742 26.2003 86.4893 27.6084 87.2569 29.5802C87.8353 31.0673 88.5244 33.3031 88.7119 37.4222C88.9143 41.876 88.9582 43.2136 88.9582 54.4888C88.9582 65.7639 88.9143 67.1019 88.7119 71.5553C88.5235 75.6745 87.8353 77.9102 87.2569 79.3978C86.4914 81.3695 85.5742 82.7734 84.0955 84.2513C82.6168 85.7299 81.2129 86.645 79.2403 87.411C77.7528 87.9919 75.5153 88.6784 71.3961 88.8669C66.9424 89.0692 65.6048 89.1132 54.3241 89.1132C43.0431 89.1132 41.7059 89.0692 37.2525 88.8669C33.1333 88.6768 30.8976 87.9885 29.4071 87.4101C27.4358 86.6442 26.0272 85.7291 24.5485 84.2504C23.0699 82.7717 22.1548 81.367 21.3871 79.3944C20.8087 77.9069 20.1197 75.6711 19.9321 71.5519C19.7297 67.0981 19.6892 65.7606 19.6892 54.4782C19.6892 43.1963 19.7297 41.8655 19.9321 37.4117C20.1205 33.2925 20.8087 31.0567 21.3871 29.5675C22.1531 27.5958 23.0699 26.1876 24.549 24.709C26.0276 23.2303 27.4358 22.3148 29.4075 21.5475C30.8967 20.9666 33.1333 20.2801 37.2525 20.0908C41.1499 19.9146 42.6603 19.8618 50.5341 19.853V19.8635ZM76.8761 26.8784C74.0772 26.8784 71.8064 29.1471 71.8064 31.9465C71.8064 34.7454 74.0772 37.0162 76.8761 37.0162C79.6751 37.0162 81.9459 34.7454 81.9459 31.9465C81.9459 29.1475 79.6751 26.8767 76.8761 26.8767V26.8784ZM54.3241 32.802C42.3426 32.802 32.6281 42.5165 32.6281 54.4985C32.6281 66.4805 42.3426 76.1903 54.3241 76.1903C66.3061 76.1903 76.0172 66.4805 76.0172 54.4985C76.0172 42.5169 66.3053 32.802 54.3233 32.802H54.3241ZM54.3241 40.4155C62.1016 40.4155 68.4071 46.7202 68.4071 54.4985C68.4071 62.2759 62.1016 68.5815 54.3241 68.5815C46.5463 68.5815 40.2416 62.2759 40.2416 54.4985C40.2416 46.7202 46.5463 40.4155 54.3241 40.4155Z" fill="white"/>
</g>
<defs>
<radialGradient id="paint0_radial_5928_10046" cx="0" cy="0" r="1" gradientUnits="userSpaceOnUse" gradientTransform="translate(28.9718 116.907) rotate(-90) scale(107.19 99.6949)">
<stop stop-color="#FFDD55"/>
<stop offset="0.1" stop-color="#FFDD55"/>
<stop offset="0.5" stop-color="#FF543E"/>
<stop offset="1" stop-color="#C837AB"/>
</radialGradient>
<radialGradient id="paint1_radial_5928_10046" cx="0" cy="0" r="1" gradientUnits="userSpaceOnUse" gradientTransform="translate(-17.8732 8.21284) rotate(78.681) scale(47.9144 197.505)">
<stop stop-color="#3771C8"/>
<stop offset="0.128" stop-color="#3771C8"/>
<stop offset="1" stop-color="#6600FF" stop-opacity="0"/>
</radialGradient>
<clipPath id="clip0_5928_10046">
<rect width="108.155" height="108.155" fill="white" transform="translate(0.243164 0.421875)"/>
</clipPath>
</defs>
</svg>
