<svg width="146" height="90" viewBox="0 0 146 90" fill="none" xmlns="http://www.w3.org/2000/svg">
<path fill-rule="evenodd" clip-rule="evenodd" d="M73.3142 78.9072C65.625 85.5416 55.6515 89.5465 44.7533 89.5465C20.4331 89.5465 0.717773 69.6023 0.717773 44.9998C0.717773 20.3974 20.4331 0.453125 44.7533 0.453125C55.6515 0.453125 65.625 4.45805 73.3142 11.0924C81.0033 4.45805 90.9768 0.453125 101.875 0.453125C126.195 0.453125 145.911 20.3974 145.911 44.9998C145.911 69.6023 126.195 89.5465 101.875 89.5465C90.9768 89.5465 81.0033 85.5416 73.3142 78.9072Z" fill="#ED0006"/>
<path fill-rule="evenodd" clip-rule="evenodd" d="M73.3145 78.9072C82.7842 70.7365 88.7891 58.5776 88.7891 44.9998C88.7891 31.4221 82.7842 19.2631 73.3145 11.0924C81.0036 4.45805 90.9771 0.453125 101.875 0.453125C126.195 0.453125 145.911 20.3974 145.911 44.9998C145.911 69.6023 126.195 89.5465 101.875 89.5465C90.9771 89.5465 81.0036 85.5416 73.3145 78.9072Z" fill="#F9A000"/>
<path fill-rule="evenodd" clip-rule="evenodd" d="M73.3145 78.9125C82.7842 70.7418 88.7891 58.5828 88.7891 45.0051C88.7891 31.4273 82.7842 19.2684 73.3145 11.0977C63.8447 19.2684 57.8398 31.4273 57.8398 45.0051C57.8398 58.5828 63.8447 70.7418 73.3145 78.9125Z" fill="#FF5E00"/>
</svg>
