<svg width="267" height="54" viewBox="0 0 267 54" fill="none" xmlns="http://www.w3.org/2000/svg">
<path d="M9.6205 35.5425C9.6205 38.6216 10.2963 40.9857 11.1797 42.4159C12.3379 44.2893 14.0654 45.0829 15.8265 45.0829C18.0981 45.0829 20.1761 44.5192 24.1807 38.9806C27.3889 34.5413 31.1692 28.31 33.7127 24.4035L38.0202 17.7853C41.0125 13.1889 44.4759 8.07937 48.4468 4.61599C51.6887 1.78919 55.1857 0.21875 58.7052 0.21875C64.614 0.21875 70.2423 3.64287 74.5498 10.0649C79.264 17.0982 81.5523 25.9572 81.5523 35.0994C81.5523 40.5342 80.481 44.5276 78.6582 47.6825C76.8971 50.7337 73.4645 53.782 67.6904 53.782V45.0829C72.6344 45.0829 73.8684 40.5398 73.8684 35.3405C73.8684 27.9314 72.1409 19.709 68.3354 13.8339C65.6348 9.66664 62.1349 7.12028 58.2845 7.12028C54.1201 7.12028 50.7689 10.2612 47.0026 15.8615C45.0003 18.8369 42.9447 22.4629 40.6367 26.5545L38.096 31.0555C32.992 40.1052 31.6992 42.1664 29.1472 45.568C24.6743 51.5245 20.8548 53.782 15.8265 53.782C9.86167 53.782 6.08981 51.1992 3.75378 47.3067C1.84681 44.135 0.910156 39.9733 0.910156 35.2312L9.6205 35.5425Z" fill="#0081FB"/>
<path d="M7.7793 10.679C11.7727 4.52344 17.5357 0.21875 24.1455 0.21875C27.9735 0.21875 31.779 1.35171 35.7528 4.59635C40.0995 8.14387 44.7323 13.9853 50.5121 23.6127L52.5845 27.0677C57.5875 35.4022 60.4339 39.6901 62.0997 41.7121C64.2423 44.3089 65.7426 45.0829 67.6916 45.0829C72.6357 45.0829 73.8696 40.5398 73.8696 35.3405L81.5536 35.0994C81.5536 40.5342 80.4823 44.5276 78.6595 47.6825C76.8983 50.7337 73.4658 53.782 67.6916 53.782C64.1021 53.782 60.9219 53.0024 57.4052 49.6848C54.7018 47.1385 51.5413 42.6151 49.1099 38.5487L41.8775 26.4676C38.2487 20.4045 34.9199 15.8839 32.9933 13.8367C30.9209 11.6353 28.2567 8.97676 24.0053 8.97676C20.5644 8.97676 17.6422 11.3913 15.1968 15.0847L7.7793 10.679Z" fill="url(#paint0_linear_5928_10065)"/>
<path d="M24.0041 8.97676C20.5631 8.97676 17.641 11.3913 15.1956 15.0847C11.7378 20.3036 9.6205 28.0773 9.6205 35.5425C9.6205 38.6216 10.2963 40.9857 11.1797 42.4159L3.75378 47.3068C1.84681 44.135 0.910156 39.9734 0.910156 35.2312C0.910156 26.6078 3.27704 17.6198 7.77803 10.679C11.7714 4.52344 17.5344 0.21875 24.1443 0.21875L24.0041 8.97676Z" fill="url(#paint1_linear_5928_10065)"/>
<path d="M98.4854 1.91406H108.561L125.693 32.9078L142.828 1.91406H152.685V52.8412H144.466V13.8102L129.44 40.8386H121.728L106.705 13.8102V52.8412H98.4854V1.91406ZM178.44 20.9024C172.546 20.9024 168.995 25.3389 168.146 30.8326H188.152C187.74 25.1734 184.475 20.9024 178.44 20.9024ZM159.996 33.9623C159.996 22.4027 167.467 13.9896 178.583 13.9896C189.518 13.9896 196.046 22.2961 196.046 34.5792V36.8368H168.146C169.136 42.8128 173.101 46.8399 179.495 46.8399C184.596 46.8399 187.785 45.2835 190.808 42.4371L195.174 47.785C191.06 51.568 185.827 53.7498 179.203 53.7498C167.17 53.7498 159.996 44.975 159.996 33.9623ZM206.013 21.6315H198.447V14.901H206.013V3.77055H213.944V14.901H225.439V21.6315H213.944V38.6904C213.944 44.5151 215.806 46.5847 220.382 46.5847C222.472 46.5847 223.669 46.4052 225.439 46.1108V52.7683C223.234 53.3909 221.131 53.6769 218.854 53.6769C210.292 53.6769 206.013 48.9993 206.013 39.6355V21.6315ZM258.833 28.1769C257.24 24.1554 253.687 21.194 248.465 21.194C241.679 21.194 237.335 26.0091 237.335 33.8529C237.335 41.5004 241.334 46.5482 248.14 46.5482C253.491 46.5482 257.31 43.4354 258.833 39.5626V28.1769ZM266.764 52.8412H258.979V47.5298C256.803 50.6566 252.843 53.7498 246.429 53.7498C236.115 53.7498 229.222 45.1152 229.222 33.8529C229.222 22.484 236.28 13.9896 246.867 13.9896C252.1 13.9896 256.205 16.0817 258.979 19.775V14.901H266.764V52.8412Z" fill="white"/>
<defs>
<linearGradient id="paint0_linear_5928_10065" x1="18.018" y1="33.0298" x2="73.5443" y2="35.8341" gradientUnits="userSpaceOnUse">
<stop stop-color="#0064E1"/>
<stop offset="0.4" stop-color="#0064E1"/>
<stop offset="0.83" stop-color="#0073EE"/>
<stop offset="1" stop-color="#0082FB"/>
</linearGradient>
<linearGradient id="paint1_linear_5928_10065" x1="13.5298" y1="39.1993" x2="13.5298" y2="18.7275" gradientUnits="userSpaceOnUse">
<stop stop-color="#0082FB"/>
<stop offset="1" stop-color="#0064E0"/>
</linearGradient>
</defs>
</svg>
