<svg width="168" height="100" viewBox="0 0 168 100" fill="none" xmlns="http://www.w3.org/2000/svg">
<g clip-path="url(#clip0_5928_10048)">
<path fill-rule="evenodd" clip-rule="evenodd" d="M166.159 53.7842C166.159 42.0352 160.468 32.7645 149.591 32.7645C138.668 32.7645 132.059 42.0352 132.059 53.6924C132.059 67.5066 139.861 74.4826 151.06 74.4826C156.521 74.4826 160.651 73.2434 163.772 71.4994V62.3205C160.651 63.8809 157.072 64.8447 152.528 64.8447C148.076 64.8447 144.129 63.2843 143.625 57.8688H166.067C166.067 57.2721 166.159 54.8856 166.159 53.7842ZM143.487 49.4242C143.487 44.2381 146.654 42.0811 149.545 42.0811C152.345 42.0811 155.328 44.2381 155.328 49.4242H143.487Z" fill="#635BFF"/>
<path fill-rule="evenodd" clip-rule="evenodd" d="M114.344 32.7645C109.846 32.7645 106.955 34.8756 105.348 36.3442L104.752 33.4988H94.6549V87.0117L106.128 84.5793L106.174 71.5912C107.827 72.7844 110.259 74.4825 114.298 74.4825C122.513 74.4825 129.994 67.8737 129.994 53.3252C129.948 40.0158 122.375 32.7645 114.344 32.7645ZM111.59 64.3857C108.882 64.3857 107.276 63.422 106.174 62.2287L106.128 45.2019C107.322 43.8709 108.974 42.953 111.59 42.953C115.766 42.953 118.658 47.6343 118.658 53.6464C118.658 59.7963 115.812 64.3857 111.59 64.3857Z" fill="#635BFF"/>
<path fill-rule="evenodd" clip-rule="evenodd" d="M78.867 30.0566L90.3864 27.5783V18.2617L78.867 20.6941V30.0566Z" fill="#635BFF"/>
<path d="M90.3864 33.5446H78.867V73.7023H90.3864V33.5446Z" fill="#635BFF"/>
<path fill-rule="evenodd" clip-rule="evenodd" d="M66.5209 36.9408L65.7866 33.5446H55.8733V73.7023H67.347V46.4868C70.0547 42.953 74.6442 43.5955 76.0669 44.1003V33.5446C74.5983 32.9939 69.2286 31.9842 66.5209 36.9408Z" fill="#635BFF"/>
<path fill-rule="evenodd" clip-rule="evenodd" d="M43.574 23.5854L32.3757 25.9719L32.3298 62.7334C32.3298 69.5258 37.4241 74.5283 44.2165 74.5283C47.9799 74.5283 50.7335 73.8399 52.248 73.0138V63.6972C50.7794 64.2938 43.5281 66.405 43.5281 59.6126V43.32H52.248V33.5445H43.5281L43.574 23.5854Z" fill="#635BFF"/>
<path fill-rule="evenodd" clip-rule="evenodd" d="M12.5498 45.2019C12.5498 43.412 14.0184 42.7236 16.4508 42.7236C19.9388 42.7236 24.3447 43.7792 27.8326 45.6608V34.8756C24.0234 33.3611 20.26 32.7645 16.4508 32.7645C7.13423 32.7645 0.938477 37.6293 0.938477 45.7526C0.938477 58.4195 18.3784 56.4001 18.3784 61.8616C18.3784 63.9727 16.5426 64.6612 13.9725 64.6612C10.1633 64.6612 5.29845 63.1007 1.44331 60.9896V71.9125C5.7115 73.7482 10.0256 74.5285 13.9725 74.5285C23.5186 74.5285 30.0815 69.8013 30.0815 61.5862C30.0356 47.9097 12.5498 50.3421 12.5498 45.2019Z" fill="#635BFF"/>
</g>
<defs>
<clipPath id="clip0_5928_10048">
<rect width="166.667" height="100" fill="white" transform="translate(0.94043)"/>
</clipPath>
</defs>
</svg>
