<svg width="110" height="109" viewBox="0 0 110 109" fill="none" xmlns="http://www.w3.org/2000/svg">
<g clip-path="url(#clip0_5928_10044)">
<path d="M83.7398 0.421875H26.2824C12.2827 0.421875 0.933594 11.7709 0.933594 25.7707V83.2281C0.933594 97.2279 12.2827 108.577 26.2824 108.577H83.7398C97.7396 108.577 109.089 97.2279 109.089 83.2281V25.7707C109.089 11.7709 97.7396 0.421875 83.7398 0.421875Z" fill="url(#paint0_radial_5928_10044)"/>
<path d="M83.7398 0.421875H26.2824C12.2827 0.421875 0.933594 11.7709 0.933594 25.7707V83.2281C0.933594 97.2279 12.2827 108.577 26.2824 108.577H83.7398C97.7396 108.577 109.089 97.2279 109.089 83.2281V25.7707C109.089 11.7709 97.7396 0.421875 83.7398 0.421875Z" fill="url(#paint1_radial_5928_10044)"/>
<path d="M55.0146 12.25C43.5408 12.25 42.1006 12.3003 37.5944 12.5052C33.0967 12.7113 30.0265 13.4232 27.3404 14.468C24.5613 15.547 22.2043 16.9907 19.8561 19.3396C17.5059 21.6882 16.0623 24.0452 14.9799 26.823C13.9321 29.51 13.2194 32.5815 13.017 37.0771C12.8155 41.5837 12.7627 43.0243 12.7627 54.4985C12.7627 65.9726 12.8134 67.4082 13.0179 71.9144C13.2249 76.4121 13.9368 79.4823 14.9807 82.1684C16.0606 84.9475 17.5042 87.3045 19.8532 89.6527C22.2009 92.0029 24.5579 93.4499 27.3349 94.5289C30.0231 95.5737 33.0937 96.2856 37.5906 96.4918C42.0972 96.6967 43.5362 96.747 55.0095 96.747C66.4845 96.747 67.9201 96.6967 72.4263 96.4918C76.924 96.2856 79.9975 95.5737 82.6858 94.5289C85.4636 93.4499 87.8172 92.0029 90.1645 89.6527C92.5148 87.3045 93.958 84.9475 95.0408 82.1697C96.0793 79.4823 96.7924 76.4113 97.0036 71.9152C97.206 67.4091 97.2588 65.9726 97.2588 54.4985C97.2588 43.0243 97.206 41.5845 97.0036 37.0779C96.7924 32.5802 96.0793 29.5104 95.0408 26.8243C93.958 24.0452 92.5148 21.6882 90.1645 19.3396C87.8147 16.9898 85.4644 15.5462 82.6832 14.4684C79.9899 13.4232 76.9181 12.7109 72.4203 12.5052C67.9137 12.3003 66.479 12.25 55.0015 12.25H55.0146ZM51.2245 19.8635C52.3496 19.8618 53.6047 19.8635 55.0146 19.8635C66.2952 19.8635 67.6319 19.9041 72.0866 20.1065C76.2058 20.2949 78.4415 20.9831 79.9308 21.5615C81.9025 22.327 83.3081 23.2425 84.7859 24.7216C86.2646 26.2003 87.1797 27.6084 87.9473 29.5802C88.5257 31.0673 89.2148 33.3031 89.4024 37.4222C89.6047 41.876 89.6487 43.2136 89.6487 54.4888C89.6487 65.7639 89.6047 67.1019 89.4024 71.5553C89.2139 75.6745 88.5257 77.9102 87.9473 79.3978C87.1818 81.3695 86.2646 82.7734 84.7859 84.2513C83.3072 85.7299 81.9033 86.645 79.9308 87.411C78.4432 87.9919 76.2058 88.6784 72.0866 88.8669C67.6328 89.0692 66.2952 89.1132 55.0146 89.1132C43.7335 89.1132 42.3963 89.0692 37.943 88.8669C33.8238 88.6768 31.588 87.9885 30.0975 87.4101C28.1262 86.6442 26.7177 85.7291 25.239 84.2504C23.7603 82.7717 22.8452 81.367 22.0775 79.3944C21.4992 77.9069 20.8101 75.6711 20.6225 71.5519C20.4202 67.0981 20.3796 65.7606 20.3796 54.4782C20.3796 43.1963 20.4202 41.8655 20.6225 37.4117C20.811 33.2925 21.4992 31.0567 22.0775 29.5675C22.8435 27.5958 23.7603 26.1876 25.2394 24.709C26.7181 23.2303 28.1262 22.3148 30.0979 21.5475C31.5872 20.9666 33.8238 20.2801 37.943 20.0908C41.8403 19.9146 43.3507 19.8618 51.2245 19.853V19.8635ZM77.5666 26.8784C74.7676 26.8784 72.4968 29.1471 72.4968 31.9465C72.4968 34.7454 74.7676 37.0162 77.5666 37.0162C80.3655 37.0162 82.6363 34.7454 82.6363 31.9465C82.6363 29.1475 80.3655 26.8767 77.5666 26.8767V26.8784ZM55.0146 32.802C43.033 32.802 33.3185 42.5165 33.3185 54.4985C33.3185 66.4805 43.033 76.1903 55.0146 76.1903C66.9965 76.1903 76.7077 66.4805 76.7077 54.4985C76.7077 42.5169 66.9957 32.802 55.0137 32.802H55.0146ZM55.0146 40.4155C62.792 40.4155 69.0975 46.7202 69.0975 54.4985C69.0975 62.2759 62.792 68.5815 55.0146 68.5815C47.2367 68.5815 40.932 62.2759 40.932 54.4985C40.932 46.7202 47.2367 40.4155 55.0146 40.4155Z" fill="white"/>
<g clip-path="url(#clip1_5928_10044)">
<path d="M83.7398 0.421875H26.2824C12.2827 0.421875 0.933594 11.7709 0.933594 25.7707V83.2281C0.933594 97.2279 12.2827 108.577 26.2824 108.577H83.7398C97.7396 108.577 109.089 97.2279 109.089 83.2281V25.7707C109.089 11.7709 97.7396 0.421875 83.7398 0.421875Z" fill="white"/>
<path d="M83.7398 0.421875H26.2824C12.2827 0.421875 0.933594 11.7709 0.933594 25.7707V83.2281C0.933594 97.2279 12.2827 108.577 26.2824 108.577H83.7398C97.7396 108.577 109.089 97.2279 109.089 83.2281V25.7707C109.089 11.7709 97.7396 0.421875 83.7398 0.421875Z" fill="#1D9BF0"/>
<path d="M85.2493 39.0431C85.2958 39.7136 85.2958 40.384 85.2958 41.0608C85.2958 61.6766 69.6015 85.453 40.9036 85.453V85.4403C32.4258 85.4526 24.1236 83.0245 16.9883 78.4462C18.2211 78.5944 19.4598 78.6684 20.7019 78.6713C27.7284 78.6768 34.5528 76.3201 40.0785 71.9797C36.8229 71.9181 33.6678 70.8407 31.0545 68.8981C28.4412 66.9556 26.5002 64.2449 25.503 61.1451C27.8404 61.5958 30.2502 61.5039 32.5466 60.8765C25.2681 59.4058 20.0314 53.0107 20.0314 45.5835V45.3858C22.2012 46.5943 24.6296 47.264 27.1122 47.3385C20.257 42.7567 18.1438 33.6366 22.2832 26.506C26.2002 31.326 31.0873 35.2682 36.6271 38.0764C42.1669 40.8847 48.2355 42.4961 54.4387 42.8061C53.8202 40.1438 53.9115 37.3658 54.7036 34.7499C55.4956 32.1339 56.9606 29.7718 58.952 27.8997C65.236 21.9926 75.1191 22.2955 81.0262 28.5761C84.5201 27.8863 87.8707 26.6054 90.9338 24.7886C89.769 28.4011 87.3317 31.4675 84.0752 33.4173C87.1681 33.0529 90.1884 32.225 93.0348 30.9614C90.941 34.0971 88.3045 36.8336 85.2493 39.0431Z" fill="white"/>
</g>
</g>
<defs>
<radialGradient id="paint0_radial_5928_10044" cx="0" cy="0" r="1" gradientUnits="userSpaceOnUse" gradientTransform="translate(29.6623 116.907) rotate(-90) scale(107.19 99.6949)">
<stop stop-color="#FFDD55"/>
<stop offset="0.1" stop-color="#FFDD55"/>
<stop offset="0.5" stop-color="#FF543E"/>
<stop offset="1" stop-color="#C837AB"/>
</radialGradient>
<radialGradient id="paint1_radial_5928_10044" cx="0" cy="0" r="1" gradientUnits="userSpaceOnUse" gradientTransform="translate(-17.1828 8.21284) rotate(78.681) scale(47.9144 197.505)">
<stop stop-color="#3771C8"/>
<stop offset="0.128" stop-color="#3771C8"/>
<stop offset="1" stop-color="#6600FF" stop-opacity="0"/>
</radialGradient>
<clipPath id="clip0_5928_10044">
<rect width="108.155" height="108.155" fill="white" transform="translate(0.933594 0.421875)"/>
</clipPath>
<clipPath id="clip1_5928_10044">
<rect width="108.155" height="116.475" fill="white" transform="translate(0.933594 0.421875)"/>
</clipPath>
</defs>
</svg>
