<svg width="159" height="52" viewBox="0 0 159 52" fill="none" xmlns="http://www.w3.org/2000/svg">
<path fill-rule="evenodd" clip-rule="evenodd" d="M40.1353 50.8358H26.4523L16.1917 11.6912C15.7047 9.89056 14.6707 8.29868 13.1496 7.5484C9.35358 5.66294 5.17064 4.1624 0.607422 3.4056V1.89853H22.6496C25.6918 1.89853 27.9734 4.1624 28.3536 6.79161L33.6774 35.0279L47.3537 1.89853H60.6564L40.1353 50.8358ZM68.2555 50.8358H55.333L65.9739 1.89853H78.8963L68.2555 50.8358ZM95.6221 15.4553C96.0024 12.8195 98.284 11.3125 100.946 11.3125C105.129 10.9341 109.685 11.6909 113.488 13.5698L115.77 3.03339C111.967 1.52633 107.784 0.769531 103.988 0.769531C91.4459 0.769531 82.3194 7.54807 82.3194 16.9558C82.3194 24.1128 88.784 27.8706 93.3472 30.1345C98.284 32.3918 100.185 33.8989 99.8051 36.1563C99.8051 39.5423 96.0024 41.0493 92.2064 41.0493C87.6432 41.0493 83.08 39.9207 78.9037 38.0352L76.6221 48.5781C81.1853 50.4571 86.1221 51.2139 90.6853 51.2139C104.749 51.5858 113.488 44.8137 113.488 34.6492C113.488 21.8489 95.6221 21.0986 95.6221 15.4553ZM158.718 50.8358L148.457 1.89853H137.436C135.154 1.89853 132.873 3.4056 132.112 5.66294L113.112 50.8358H126.415L129.07 43.6854H145.415L146.936 50.8358H158.718ZM139.326 15.075L143.122 33.5186H132.481L139.326 15.075Z" fill="white"/>
</svg>
