<svg width="109" height="109" viewBox="0 0 109 109" fill="none" xmlns="http://www.w3.org/2000/svg">
<g clip-path="url(#clip0_5928_10045)">
<path d="M2.38926 53.8496C2.38672 63.0077 4.77965 71.95 9.32977 79.8318L1.9541 106.762L29.5134 99.5354C37.1359 103.685 45.6764 105.859 54.3552 105.86H54.378C83.0285 105.86 106.351 82.5462 106.363 53.8906C106.368 40.0049 100.966 26.9477 91.1499 17.1242C81.3357 7.30155 68.2831 1.88915 54.3759 1.88281C25.722 1.88281 2.40151 25.1953 2.38968 53.8496" fill="url(#paint0_linear_5928_10045)"/>
<path d="M0.539945 53.8308C0.536988 63.3184 3.01568 72.5805 7.72803 80.7445L0.0878906 108.64L28.6353 101.155C36.5011 105.443 45.3571 107.704 54.3686 107.708H54.3919C84.0703 107.708 108.23 83.5553 108.243 53.8739C108.248 39.4893 102.651 25.9627 92.4844 15.7873C82.3166 5.61308 68.7972 0.00591473 54.3919 0C24.7084 0 0.551774 24.149 0.539945 53.8308ZM17.5406 79.3385L16.4746 77.6464C11.9938 70.5217 9.62877 62.2884 9.63215 53.8342C9.64187 29.1634 29.7198 9.09178 54.4088 9.09178C66.365 9.09685 77.6013 13.7577 86.0526 22.214C94.5034 30.6712 99.1537 41.9135 99.1507 53.8705C99.1397 78.5413 79.0613 98.6154 54.3919 98.6154H54.3741C46.3415 98.6112 38.4635 96.454 31.5931 92.3775L29.9581 91.4079L13.0175 95.8494L17.5406 79.3381V79.3385Z" fill="url(#paint1_linear_5928_10045)"/>
<path d="M40.9322 31.3328C39.9241 29.0924 38.8633 29.0472 37.9047 29.0079C37.1197 28.9741 36.2223 28.9766 35.3258 28.9766C34.4285 28.9766 32.9705 29.3142 31.7381 30.6598C30.5045 32.0066 27.0283 35.2614 27.0283 41.8813C27.0283 48.5015 31.8501 54.8992 32.5223 55.7978C33.1953 56.6947 41.8308 70.7143 55.5073 76.1077C66.8737 80.5898 69.1868 79.6984 71.6537 79.4736C74.121 79.2497 79.6149 76.2197 80.7357 73.0777C81.8574 69.9361 81.8574 67.2432 81.5211 66.6805C81.1848 66.1198 80.2875 65.7831 78.9419 65.1105C77.5959 64.4375 70.9807 61.1823 69.7474 60.7332C68.5138 60.2845 67.6169 60.0606 66.7195 61.4079C65.8222 62.7531 63.2455 65.7831 62.4601 66.6805C61.6755 67.5799 60.8901 67.6919 59.545 67.0189C58.1985 66.3438 53.8651 64.9246 48.724 60.3411C44.7239 56.7746 42.0234 52.3702 41.2385 51.0229C40.4535 49.6777 41.1544 48.9485 41.8291 48.2781C42.4337 47.6752 43.1751 46.7069 43.8485 45.9215C44.5194 45.1356 44.7434 44.575 45.192 43.6777C45.6411 42.7795 45.4164 41.9937 45.0805 41.3206C44.7434 40.6476 42.1286 33.9931 40.9322 31.3328Z" fill="white"/>
</g>
<defs>
<linearGradient id="paint0_linear_5928_10045" x1="5222.4" y1="10489.8" x2="5222.4" y2="1.88281" gradientUnits="userSpaceOnUse">
<stop stop-color="#1FAF38"/>
<stop offset="1" stop-color="#60D669"/>
</linearGradient>
<linearGradient id="paint1_linear_5928_10045" x1="5407.84" y1="10864" x2="5407.84" y2="0" gradientUnits="userSpaceOnUse">
<stop stop-color="#F9F9F9"/>
<stop offset="1" stop-color="white"/>
</linearGradient>
<clipPath id="clip0_5928_10045">
<rect width="108.155" height="109" fill="white" transform="translate(0.0878906)"/>
</clipPath>
</defs>
</svg>
