<svg width="55" height="55" viewBox="0 0 55 55" fill="none" xmlns="http://www.w3.org/2000/svg">
<path d="M0.000976562 20.625C0.000976562 13.4056 0.000976562 9.79586 1.40597 7.0384C2.64184 4.61288 4.61385 2.64086 7.03938 1.40499C9.79684 0 13.4065 0 20.626 0H34.376C41.5954 0 45.2051 0 47.9626 1.40499C50.3881 2.64086 52.3601 4.61288 53.596 7.0384C55.001 9.79586 55.001 13.4056 55.001 20.625V34.375C55.001 41.5944 55.001 45.2041 53.596 47.9616C52.3601 50.3871 50.3881 52.3591 47.9626 53.595C45.2051 55 41.5954 55 34.376 55H20.626C13.4065 55 9.79684 55 7.03938 53.595C4.61385 52.3591 2.64184 50.3871 1.40597 47.9616C0.000976562 45.2041 0.000976562 41.5944 0.000976562 34.375V20.625Z" fill="url(#paint0_linear_5928_9786)"/>
<path d="M37.168 33.8398V22.9883C37.168 21.1834 37.168 20.281 36.8167 19.5916C36.5077 18.9853 36.0147 18.4922 35.4084 18.1833C34.719 17.832 33.8166 17.832 32.0117 17.832H22.9883C21.1834 17.832 20.281 17.832 19.5916 18.1833C18.9853 18.4922 18.4922 18.9853 18.1833 19.5916C17.832 20.281 17.832 21.1834 17.832 22.9883V28.925C17.832 30.7299 17.832 31.6323 18.1833 32.3217C18.4922 32.9281 18.9853 33.4211 19.5916 33.73C20.281 34.0813 21.1834 34.0813 22.9883 34.0813H30.4424C30.848 34.0813 31.0509 34.0813 31.2463 34.1018C31.9185 34.1723 32.5593 34.4226 33.1011 34.8265C33.2587 34.9439 33.4079 35.0815 33.706 35.3565C34.3409 35.9419 34.6583 36.2346 34.8992 36.3423C35.7672 36.7302 36.7805 36.2862 37.0838 35.3852C37.168 35.1351 37.168 34.7033 37.168 33.8398Z" fill="white"/>
<defs>
<linearGradient id="paint0_linear_5928_9786" x1="0.000976562" y1="0" x2="65.2537" y2="36.84" gradientUnits="userSpaceOnUse">
<stop stop-color="#75FFEE"/>
<stop offset="0.3125" stop-color="#A771FF"/>
<stop offset="0.578125" stop-color="#FC5CFF"/>
<stop offset="1" stop-color="#FF4747" stop-opacity="0.6"/>
</linearGradient>
</defs>
</svg>
