<svg width="248" height="64" viewBox="0 0 248 64" fill="none" xmlns="http://www.w3.org/2000/svg">
<path d="M82.5312 16.4531H76.7998V42.3144H92.666V37.247H82.5312V16.4531Z" fill="white"/>
<path d="M93.2129 33.5466C93.2129 39.0683 96.9174 42.7378 102.509 42.7378C108.066 42.7378 111.77 39.0683 111.77 33.5466C111.77 28.0248 108.066 24.3203 102.509 24.3203C96.9174 24.3203 93.2129 28.0248 93.2129 33.5466ZM98.6297 33.5115C98.6297 30.8906 100.167 29.1432 102.509 29.1432C104.815 29.1432 106.353 30.8906 106.353 33.5115C106.353 36.1677 104.815 37.915 102.509 37.915C100.167 37.915 98.6297 36.1677 98.6297 33.5115Z" fill="white"/>
<path d="M112.632 33.2626C112.632 38.5395 116.057 42.1042 120.915 42.1042C123.257 42.1042 125.283 41.2655 126.297 39.9026V42.3139C126.297 44.7253 124.794 46.3328 122.138 46.3328C119.762 46.3328 118.119 45.2146 118.014 43.2226H112.562C113.052 48.0104 116.756 51.2255 121.824 51.2255C127.8 51.2255 131.574 47.3464 131.574 41.1955V24.8402H126.716L126.437 26.6224C125.458 25.1896 123.396 24.2461 121.02 24.2461C116.127 24.2461 112.632 27.9155 112.632 33.2626ZM118.084 33.1227C118.084 30.6064 119.762 28.929 121.894 28.929C124.375 28.929 126.192 30.5715 126.192 33.1227C126.192 35.6739 124.41 37.4213 121.928 37.4213C119.797 37.4213 118.084 35.6739 118.084 33.1227Z" fill="white"/>
<path d="M133.15 33.5466C133.15 39.0683 136.855 42.7378 142.447 42.7378C148.003 42.7378 151.708 39.0683 151.708 33.5466C151.708 28.0248 148.003 24.3203 142.447 24.3203C136.855 24.3203 133.15 28.0248 133.15 33.5466ZM138.567 33.5115C138.567 30.8906 140.105 29.1432 142.447 29.1432C144.753 29.1432 146.291 30.8906 146.291 33.5115C146.291 36.1677 144.753 37.915 142.447 37.915C140.105 37.915 138.567 36.1677 138.567 33.5115Z" fill="white"/>
<path d="M156.338 22.1158C158.015 22.1158 159.379 20.7528 159.379 19.0405C159.379 17.328 158.015 16 156.338 16C154.626 16 153.263 17.328 153.263 19.0405C153.263 20.7528 154.626 22.1158 156.338 22.1158ZM153.612 42.3155H159.029V24.8418H153.612V42.3155Z" fill="white"/>
<path d="M162.188 50.7016H167.5V40.5669C168.512 41.8948 170.819 42.8035 173.231 42.8035C178.437 42.8035 181.583 38.8195 181.444 33.2977C181.303 27.6712 178.053 24.2812 173.196 24.2812C170.714 24.2812 168.373 25.3646 167.394 26.9723L167.114 24.8404H162.188V50.7016ZM167.604 33.5773C167.604 30.9563 169.351 29.2089 171.868 29.2089C174.418 29.2089 176.026 30.9912 176.026 33.5773C176.026 36.1635 174.418 37.9457 171.868 37.9457C169.351 37.9457 167.604 36.1984 167.604 33.5773Z" fill="white"/>
<path d="M182.013 36.7924C182.152 40.3222 184.949 42.7684 189.352 42.7684C193.581 42.7684 196.517 40.5318 196.517 36.9323C196.517 34.3462 194.979 32.6337 192.112 31.9347L189.003 31.1659C187.885 30.8864 187.185 30.6067 187.185 29.698C187.185 28.7894 187.918 28.1953 189.003 28.1953C190.225 28.1953 191.029 28.9992 190.995 30.1873H195.853C195.712 26.5528 192.952 24.2812 189.107 24.2812C185.229 24.2812 182.328 26.5878 182.328 30.0825C182.328 32.424 183.621 34.3462 187.08 35.2549L190.155 36.0585C191.064 36.3032 191.448 36.7225 191.448 37.3166C191.448 38.1904 190.645 38.7496 189.281 38.7496C187.709 38.7496 186.87 38.0156 186.87 36.7924H182.013Z" fill="white"/>
<path d="M204.756 42.7678C206.888 42.7678 209.02 41.7893 210.103 40.3565L210.453 42.3136H215.52V24.8398H210.138V33.9262C210.138 36.5472 209.37 37.98 206.888 37.98C204.965 37.98 203.708 37.1064 203.708 33.8563V24.8398H198.325V35.8133C198.325 39.9722 200.632 42.7678 204.756 42.7678Z" fill="white"/>
<path d="M224.055 42.3139V32.7733C224.055 29.8376 225.628 28.9989 227.166 28.9989C228.878 28.9989 229.996 30.0474 229.996 32.2141V42.3139H235.308V32.7733C235.308 29.8027 236.846 28.964 238.383 28.964C240.095 28.964 241.249 30.0123 241.249 32.2141V42.3139H246.492V30.8861C246.492 26.9021 244.394 24.2461 239.886 24.2461C237.37 24.2461 235.308 25.4691 234.399 27.3563C233.351 25.4691 231.534 24.2461 228.633 24.2461C226.711 24.2461 224.929 25.1197 223.881 26.5176L223.671 24.8402H218.638V42.3139H224.055Z" fill="white"/>
<path d="M0 32C0 16.915 0 9.37258 4.68629 4.68629C9.37258 0 16.915 0 32 0C47.085 0 54.6274 0 59.3138 4.68629C64 9.37258 64 16.915 64 32C64 47.085 64 54.6274 59.3138 59.3138C54.6274 64 47.085 64 32 64C16.915 64 9.37258 64 4.68629 59.3138C0 54.6274 0 47.085 0 32Z" fill="#243A5A"/>
<path d="M38.4044 41.6016C39.2881 41.6016 40.0206 42.3249 39.845 43.191C39.5348 44.7206 38.7812 46.1384 37.6612 47.2584C36.161 48.7587 34.1262 49.6016 32.0044 49.6016C29.8826 49.6016 27.8479 48.7587 26.3476 47.2584C25.2276 46.1384 24.474 44.7206 24.1639 43.191C23.9882 42.3249 24.7207 41.6016 25.6044 41.6016H38.4044Z" fill="#2DF8BB"/>
<path d="M41.7609 28.4432C40.9073 28.6718 40.3845 29.5648 40.8173 30.3352C41.2729 31.1461 41.9029 31.8537 42.6695 32.403C43.873 33.2654 45.3383 33.684 46.8159 33.587C48.2933 33.4902 49.6916 32.8841 50.7722 31.872C51.853 30.8598 52.5492 29.5041 52.7425 28.0361C52.9357 26.5681 52.6141 25.0785 51.8322 23.8211C51.0503 22.5638 49.8565 21.6165 48.4545 21.1405C47.0524 20.6645 45.5287 20.6894 44.1429 21.211C43.2604 21.5432 42.4687 22.0637 41.8188 22.7289C41.2013 23.3611 41.4751 24.359 42.2404 24.8008L43.0521 25.2694C44.2865 25.9822 44.0431 27.8317 42.6661 28.2006L41.7609 28.4432Z" fill="#2DF8BB"/>
<path d="M22.2366 28.4432C23.0902 28.6718 23.6129 29.5648 23.1801 30.3352C22.7246 31.1461 22.0945 31.8537 21.3281 32.403C20.1246 33.2654 18.6591 33.684 17.1817 33.587C15.7041 33.4902 14.3059 32.8841 13.2252 31.872C12.1445 30.8598 11.4482 29.5041 11.255 28.0361C11.0617 26.5681 11.3834 25.0785 12.1653 23.8211C12.9472 22.5638 14.1409 21.6165 15.543 21.1405C16.9451 20.6645 18.4689 20.6894 19.8547 21.211C20.7371 21.5432 21.5289 22.0637 22.1788 22.7289C22.7963 23.3611 22.5223 24.359 21.7571 24.8008L20.9454 25.2694C19.711 25.9822 19.9545 27.8317 21.3313 28.2006L22.2366 28.4432Z" fill="#2DF8BB"/>
</svg>
