<svg width="57" height="57" viewBox="0 0 57 57" fill="none" xmlns="http://www.w3.org/2000/svg">
<path d="M44.8281 7.125H10.9844C9.33236 7.1297 7.74935 7.78804 6.5812 8.9562C5.41304 10.1244 4.7547 11.7074 4.75 13.3594V34.7344C4.7547 36.3864 5.41304 37.9694 6.5812 39.1376C7.74935 40.3057 9.33236 40.9641 10.9844 40.9688H15.4375V49.875L25.8712 41.1758C26.0314 41.042 26.2335 40.9687 26.4423 40.9688H44.8281C46.4801 40.9641 48.0631 40.3057 49.2313 39.1376C50.3995 37.9694 51.0578 36.3864 51.0625 34.7344V13.3594C51.0578 11.7074 50.3995 10.1244 49.2313 8.9562C48.0631 7.78804 46.4801 7.1297 44.8281 7.125V7.125Z" stroke="url(#paint0_linear_5928_9824)" stroke-width="4.75" stroke-linejoin="round"/>
<defs>
<linearGradient id="paint0_linear_5928_9824" x1="4.75" y1="7.125" x2="57.4829" y2="39.3776" gradientUnits="userSpaceOnUse">
<stop stop-color="#75FFEE"/>
<stop offset="0.3125" stop-color="#A771FF"/>
<stop offset="0.578125" stop-color="#FC5CFF"/>
<stop offset="1" stop-color="#FF4747" stop-opacity="0.6"/>
</linearGradient>
</defs>
</svg>
