<svg width="57" height="57" viewBox="0 0 57 57" fill="none" xmlns="http://www.w3.org/2000/svg">
<path d="M11.875 52.25H45.125C47.7446 52.25 49.875 50.1196 49.875 47.5V21.375C49.875 20.7451 49.6248 20.141 49.1794 19.6956C48.734 19.2502 48.1299 19 47.5 19H40.375V16.625C40.375 10.0771 35.0479 4.75 28.5 4.75C21.9521 4.75 16.625 10.0771 16.625 16.625V19H9.5C8.87011 19 8.26602 19.2502 7.82062 19.6956C7.37522 20.141 7.125 20.7451 7.125 21.375V47.5C7.125 50.1196 9.25537 52.25 11.875 52.25ZM21.375 16.625C21.375 12.6967 24.5718 9.5 28.5 9.5C32.4282 9.5 35.625 12.6967 35.625 16.625V19H21.375V16.625ZM11.875 23.75H16.625V28.5H21.375V23.75H35.625V28.5H40.375V23.75H45.125L45.1298 47.5H11.875V23.75Z" fill="url(#paint0_linear_5928_9825)"/>
<defs>
<linearGradient id="paint0_linear_5928_9825" x1="7.125" y1="4.75" x2="60.2854" y2="31.7617" gradientUnits="userSpaceOnUse">
<stop stop-color="#75FFEE"/>
<stop offset="0.3125" stop-color="#A771FF"/>
<stop offset="0.578125" stop-color="#FC5CFF"/>
<stop offset="1" stop-color="#FF4747" stop-opacity="0.6"/>
</linearGradient>
</defs>
</svg>
