<svg width="1129" height="889" viewBox="0 0 1129 889" fill="none" xmlns="http://www.w3.org/2000/svg">
<path d="M1018.79 367.318H242.57V952.95H1018.79V367.318Z" fill="#1D97FD"/>
<mask id="mask0_5928_10132" style="mask-type:luminance" maskUnits="userSpaceOnUse" x="243" y="404" width="777" height="551">
<path d="M1019.15 404.59H243.508V954.205H1019.15V404.59Z" fill="white"/>
</mask>
<g mask="url(#mask0_5928_10132)">
<path d="M264.197 502.871C255.596 502.889 247.077 501.208 239.126 497.924C231.175 494.64 223.949 489.817 217.861 483.732C211.773 477.647 206.943 470.419 203.648 462.462C200.352 454.505 198.656 445.975 198.656 437.36V390.03L329.293 389.668L329.543 436.998C329.59 445.627 327.936 454.18 324.674 462.166C321.412 470.153 316.607 477.415 310.535 483.536C304.463 489.656 297.244 494.515 289.291 497.834C281.339 501.152 272.811 502.863 264.197 502.871Z" fill="black" stroke="black" stroke-width="2.78413" stroke-miterlimit="10"/>
<path d="M395.804 502.871C387.213 502.874 378.706 501.183 370.768 497.892C362.83 494.601 355.617 489.776 349.54 483.693C343.464 477.609 338.645 470.386 335.356 462.436C332.068 454.486 330.375 445.965 330.375 437.36V390.03L461.011 389.668L461.261 436.998C461.313 445.637 459.657 454.201 456.389 462.196C453.122 470.192 448.307 477.46 442.223 483.583C436.138 489.706 428.904 494.563 420.938 497.873C412.971 501.183 404.429 502.882 395.804 502.871Z" fill="black" stroke="black" stroke-width="2.78413" stroke-miterlimit="10"/>
<path d="M527.347 502.871C518.757 502.874 510.251 501.182 502.314 497.891C494.378 494.601 487.167 489.775 481.093 483.691C475.019 477.607 470.202 470.384 466.916 462.434C463.631 454.484 461.942 445.964 461.945 437.36V390.03L592.582 389.668L592.832 436.998C592.876 445.638 591.214 454.2 587.942 462.194C584.67 470.188 579.853 477.455 573.767 483.577C567.681 489.699 560.446 494.555 552.48 497.866C544.513 501.177 535.972 502.878 527.347 502.871Z" fill="black" stroke="black" stroke-width="2.78413" stroke-miterlimit="10"/>
<path d="M658.987 502.871C650.399 502.871 641.894 501.176 633.959 497.884C626.024 494.592 618.815 489.766 612.742 483.683C606.669 477.6 601.851 470.378 598.564 462.43C595.278 454.482 593.586 445.963 593.586 437.36V390.03L724.222 389.668L724.472 436.998C724.52 445.639 722.861 454.203 719.59 462.198C716.32 470.194 711.502 477.462 705.415 483.585C699.329 489.708 692.093 494.564 684.125 497.874C676.157 501.183 667.614 502.882 658.987 502.871Z" fill="black" stroke="black" stroke-width="2.78413" stroke-miterlimit="10"/>
<path d="M790.718 502.871C782.127 502.874 773.62 501.183 765.682 497.892C757.744 494.601 750.531 489.776 744.455 483.693C738.379 477.609 733.559 470.386 730.27 462.436C726.982 454.486 725.289 445.965 725.289 437.36V390.03L855.925 389.668L856.175 436.998C856.223 445.636 854.565 454.198 851.296 462.192C848.027 470.186 843.212 477.453 837.128 483.575C831.045 489.697 823.812 494.554 815.847 497.866C807.882 501.177 799.342 502.878 790.718 502.871Z" fill="black" stroke="black" stroke-width="2.78413" stroke-miterlimit="10"/>
<path d="M922.136 502.871C913.546 502.874 905.04 501.182 897.103 497.891C889.167 494.601 881.956 489.775 875.882 483.691C869.808 477.607 864.991 470.384 861.705 462.434C858.42 454.484 856.731 445.964 856.734 437.36V390.03L987.371 389.668L987.621 436.998C987.672 445.64 986.016 454.206 982.746 462.203C979.477 470.2 974.66 477.47 968.572 483.593C962.485 489.717 955.248 494.573 947.278 497.881C939.308 501.19 930.763 502.885 922.136 502.871Z" fill="black" stroke="black" stroke-width="2.78413" stroke-miterlimit="10"/>
<path d="M1053.71 502.871C1045.12 502.874 1036.61 501.182 1028.67 497.891C1020.74 494.601 1013.53 489.775 1007.45 483.691C1001.38 477.607 996.561 470.384 993.276 462.434C989.99 454.484 988.301 445.964 988.305 437.36V390.03L1118.94 389.668L1119.19 436.998C1119.24 445.639 1117.58 454.203 1114.31 462.198C1111.04 470.194 1106.22 477.462 1100.13 483.585C1094.05 489.708 1086.81 494.564 1078.84 497.874C1070.88 501.183 1062.33 502.882 1053.71 502.871Z" fill="black" stroke="black" stroke-width="2.78413" stroke-miterlimit="10"/>
</g>
<path d="M949.023 565.066H626.102V777.328H949.023V565.066Z" fill="#468CCB"/>
<path d="M949.023 565.066H626.102V777.328H949.023V565.066Z" fill="#72B7F0"/>
<mask id="mask1_5928_10132" style="mask-type:luminance" maskUnits="userSpaceOnUse" x="626" y="565" width="324" height="213">
<path d="M949.203 565.062H626.281V777.324H949.203V565.062Z" fill="white"/>
</mask>
<g mask="url(#mask1_5928_10132)">
<path d="M1015.81 633.515L610.195 812.541L628.576 854.324L1034.19 675.298L1015.81 633.515Z" fill="#7CC3FF"/>
<path d="M973.49 549.099L567.875 728.125L586.256 769.908L991.87 590.882L973.49 549.099Z" fill="#7CC3FF"/>
</g>
<path d="M544.503 565.064H314.5V954.202H544.503V565.064Z" fill="#1080DD"/>
<path d="M511.519 603.486H351.781V709.617H511.519V603.486Z" fill="#72B7F0"/>
<mask id="mask2_5928_10132" style="mask-type:luminance" maskUnits="userSpaceOnUse" x="351" y="603" width="161" height="107">
<path d="M511.534 603.49H351.797V709.621H511.534V603.49Z" fill="white"/>
</mask>
<g mask="url(#mask2_5928_10132)">
<path d="M536.424 604.548L286.758 652.344L291.48 677.092L541.146 629.296L536.424 604.548Z" fill="#72B7F0"/>
<path d="M554.025 651.247L304.359 699.043L309.081 723.791L558.747 675.995L554.025 651.247Z" fill="#72B7F0"/>
</g>
<path d="M531.021 577.201H327.617V954.2H531.021V577.201Z" fill="#1D97FD"/>
<path d="M511.519 741.938H351.781V922.878H511.519V741.938Z" fill="#1378CD"/>
<path d="M367.998 143.199H916.261C924.985 143.199 933.351 146.847 939.519 153.34C945.687 159.833 949.152 168.639 949.152 177.822V194.844H335.133V177.822C335.133 168.644 338.595 159.842 344.757 153.35C350.92 146.858 359.279 143.207 367.998 143.199Z" fill="#1080DD"/>
<path d="M245.574 474.541C237.021 474.541 228.552 472.954 220.65 469.871C212.748 466.787 205.569 462.269 199.522 456.572C193.476 450.875 188.68 444.113 185.409 436.671C182.139 429.228 180.457 421.252 180.461 413.198V368.897L310.522 368.559L310.771 412.859C310.822 420.948 309.173 428.967 305.918 436.454C302.664 443.941 297.868 450.747 291.808 456.48C285.748 462.214 278.543 466.761 270.608 469.861C262.673 472.961 254.165 474.551 245.574 474.541Z" fill="#72B7F0"/>
<path d="M245.574 474.541C237.021 474.541 228.552 472.954 220.65 469.871C212.748 466.787 205.569 462.269 199.522 456.572C193.476 450.875 188.68 444.113 185.409 436.671C182.139 429.228 180.457 421.252 180.461 413.198V368.897L310.522 368.559L310.771 412.859C310.822 420.948 309.173 428.967 305.918 436.454C302.664 443.941 297.868 450.747 291.808 456.48C285.748 462.214 278.543 466.761 270.608 469.861C262.673 472.961 254.165 474.551 245.574 474.541Z" fill="black" fill-opacity="0.07"/>
<path d="M376.574 474.541C359.303 474.534 342.741 468.068 330.531 456.564C318.32 445.061 311.461 429.462 311.461 413.198V368.897L441.522 368.559L441.771 412.859C441.818 420.947 440.167 428.965 436.911 436.45C433.655 443.935 428.859 450.74 422.8 456.473C416.74 462.205 409.537 466.753 401.603 469.854C393.67 472.955 385.164 474.548 376.574 474.541Z" fill="#1D97FD"/>
<path d="M376.574 474.541C359.303 474.534 342.741 468.068 330.531 456.564C318.32 445.061 311.461 429.462 311.461 413.198V368.897L441.522 368.559L441.771 412.859C441.818 420.947 440.167 428.965 436.911 436.45C433.655 443.935 428.859 450.74 422.8 456.473C416.74 462.205 409.537 466.753 401.603 469.854C393.67 472.955 385.164 474.548 376.574 474.541Z" fill="black" fill-opacity="0.07"/>
<path d="M507.609 474.541C490.342 474.527 473.788 468.058 461.583 456.555C449.379 445.053 442.523 429.458 442.523 413.198V368.897L572.584 368.559L572.833 412.859C572.881 420.95 571.228 428.969 567.971 436.456C564.713 443.943 559.915 450.749 553.852 456.482C547.79 462.215 540.583 466.762 532.647 469.861C524.71 472.961 516.201 474.551 507.609 474.541Z" fill="#72B7F0"/>
<path d="M507.609 474.541C490.342 474.527 473.788 468.058 461.583 456.555C449.379 445.053 442.523 429.458 442.523 413.198V368.897L572.584 368.559L572.833 412.859C572.881 420.95 571.228 428.969 567.971 436.456C564.713 443.943 559.915 450.749 553.852 456.482C547.79 462.215 540.583 466.762 532.647 469.861C524.71 472.961 516.201 474.551 507.609 474.541Z" fill="black" fill-opacity="0.07"/>
<path d="M638.594 474.541C621.318 474.541 604.749 468.078 592.533 456.574C580.316 445.07 573.453 429.467 573.453 413.198V368.897L703.514 368.559L703.763 412.859C703.811 420.945 702.16 428.961 698.906 436.444C695.651 443.927 690.858 450.731 684.802 456.463C678.745 462.196 671.545 466.744 663.615 469.846C655.685 472.949 647.181 474.544 638.594 474.541Z" fill="#1D97FD"/>
<path d="M638.594 474.541C621.318 474.541 604.749 468.078 592.533 456.574C580.316 445.07 573.453 429.467 573.453 413.198V368.897L703.514 368.559L703.763 412.859C703.811 420.945 702.16 428.961 698.906 436.444C695.651 443.927 690.858 450.731 684.802 456.463C678.745 462.196 671.545 466.744 663.615 469.846C655.685 472.949 647.181 474.544 638.594 474.541Z" fill="black" fill-opacity="0.07"/>
<path d="M769.559 474.541C761.006 474.541 752.536 472.954 744.635 469.871C736.733 466.787 729.553 462.269 723.507 456.572C717.46 450.875 712.664 444.113 709.394 436.671C706.123 429.228 704.442 421.252 704.445 413.198V368.897L834.506 368.559L834.755 412.859C834.807 420.948 833.157 428.967 829.903 436.454C826.648 443.941 821.853 450.747 815.792 456.48C809.732 462.214 802.527 466.761 794.592 469.861C786.657 472.961 778.149 474.551 769.559 474.541Z" fill="#72B7F0"/>
<path d="M769.559 474.541C761.006 474.541 752.536 472.954 744.635 469.871C736.733 466.787 729.553 462.269 723.507 456.572C717.46 450.875 712.664 444.113 709.394 436.671C706.123 429.228 704.442 421.252 704.445 413.198V368.897L834.506 368.559L834.755 412.859C834.807 420.948 833.157 428.967 829.903 436.454C826.648 443.941 821.853 450.747 815.792 456.48C809.732 462.214 802.527 466.761 794.592 469.861C786.657 472.961 778.149 474.551 769.559 474.541Z" fill="black" fill-opacity="0.07"/>
<path d="M900.633 474.541C883.357 474.541 866.788 468.078 854.572 456.574C842.355 445.07 835.492 429.467 835.492 413.198V368.897L965.553 368.559L965.802 412.859C965.85 420.945 964.199 428.961 960.945 436.444C957.691 443.927 952.897 450.731 946.841 456.463C940.784 462.196 933.584 466.744 925.654 469.846C917.724 472.949 909.221 474.544 900.633 474.541Z" fill="#1D97FD"/>
<path d="M900.633 474.541C883.357 474.541 866.788 468.078 854.572 456.574C842.355 445.07 835.492 429.467 835.492 413.198V368.897L965.553 368.559L965.802 412.859C965.85 420.945 964.199 428.961 960.945 436.444C957.691 443.927 952.897 450.731 946.841 456.463C940.784 462.196 933.584 466.744 925.654 469.846C917.724 472.949 909.221 474.544 900.633 474.541Z" fill="black" fill-opacity="0.07"/>
<path d="M1031.18 474.196C1013.78 474.196 997.089 467.754 984.786 456.287C972.482 444.821 965.57 429.269 965.57 413.052V368.896L1096.56 368.559L1096.81 412.715C1096.86 420.775 1095.2 428.764 1091.92 436.223C1088.64 443.682 1083.81 450.463 1077.71 456.177C1071.61 461.891 1064.36 466.425 1056.38 469.517C1048.39 472.609 1039.82 474.199 1031.18 474.196Z" fill="#72B7F0"/>
<path d="M1031.18 474.196C1013.78 474.196 997.089 467.754 984.786 456.287C972.482 444.821 965.57 429.269 965.57 413.052V368.896L1096.56 368.559L1096.81 412.715C1096.86 420.775 1095.2 428.764 1091.92 436.223C1088.64 443.682 1083.81 450.463 1077.71 456.177C1071.61 461.891 1064.36 466.425 1056.38 469.517C1048.39 472.609 1039.82 474.199 1031.18 474.196Z" fill="black" fill-opacity="0.07"/>
<path d="M1096.79 368.556L181.492 370.595L309.301 189.627H974.219L1096.79 368.556Z" fill="#72B7F0"/>
<mask id="mask3_5928_10132" style="mask-type:luminance" maskUnits="userSpaceOnUse" x="181" y="189" width="916" height="182">
<path d="M1096.79 370.595H181.492L309.301 189.627H974.219L1096.79 370.595Z" fill="white"/>
</mask>
<g mask="url(#mask3_5928_10132)">
<path d="M312.328 372.629L175.57 379.144L289.762 180.135H407.677L312.328 372.629Z" fill="#72B7F0"/>
<path d="M433.016 386.243L307.875 384.879L401.251 189.823L505.8 187.262L433.016 386.243Z" fill="#1D97FD"/>
<path d="M578.351 374.66L434.812 373.185L504.928 189.627H593.886L578.351 374.66Z" fill="#72B7F0"/>
<path d="M708.137 370.595L578.383 373.741L594.14 189.627H692.519L708.137 370.595Z" fill="#1D97FD"/>
<path d="M839.571 378.975L708.038 379.226L692.531 189.627H786.991L839.571 378.975Z" fill="#72B7F0"/>
<path d="M973.437 384.683L839.542 383.625L787.156 190.379L878.976 189.627L973.437 384.683Z" fill="#1D97FD"/>
</g>
<path d="M515.486 603.307H344.062V715.986H515.486V603.307Z" fill="#468CCB"/>
<path d="M515.486 603.307H344.062V715.986H515.486V603.307Z" fill="#72B7F0"/>
<mask id="mask4_5928_10132" style="mask-type:luminance" maskUnits="userSpaceOnUse" x="344" y="603" width="172" height="113">
<path d="M515.58 603.309H344.156V715.988H515.58V603.309Z" fill="white"/>
</mask>
<g mask="url(#mask4_5928_10132)">
<path d="M550.946 639.641L335.625 734.678L345.382 756.858L560.703 661.822L550.946 639.641Z" fill="#7CC3FF"/>
<path d="M528.477 594.833L313.156 689.869L322.914 712.05L538.235 617.014L528.477 594.833Z" fill="#7CC3FF"/>
</g>
</svg>
