<svg width="176" height="52" viewBox="0 0 176 52" fill="none" xmlns="http://www.w3.org/2000/svg">
<rect x="0.65" y="0.65" width="174.7" height="50.7" rx="25.35" fill="#262626"/>
<path d="M139.411 38.9998H141.843V22.7477H139.411V38.9998ZM161.322 28.6024L158.533 35.6483H158.45L155.556 28.6024H152.935L157.277 38.4499L154.801 43.9281H157.338L164.027 28.6024H161.322ZM147.525 37.1539C146.73 37.1539 145.618 36.7563 145.618 35.7737C145.618 34.5194 147.002 34.0385 148.196 34.0385C149.265 34.0385 149.77 34.2681 150.419 34.5819C150.23 36.0875 148.93 37.1539 147.525 37.1539ZM147.819 28.2469C146.058 28.2469 144.234 29.0207 143.479 30.7352L145.638 31.634C146.1 30.7352 146.959 30.4427 147.861 30.4427C149.119 30.4427 150.398 31.1947 150.419 32.5333V32.7004C149.978 32.4495 149.035 32.0733 147.882 32.0733C145.554 32.0733 143.185 33.3483 143.185 35.732C143.185 37.9065 145.093 39.3075 147.231 39.3075C148.866 39.3075 149.77 38.5757 150.334 37.7181H150.419V38.9734H152.768V32.742C152.768 29.8566 150.607 28.2469 147.819 28.2469ZM132.785 30.5807H129.325V25.0101H132.785C134.604 25.0101 135.636 26.5112 135.636 27.7954C135.636 29.0548 134.604 30.5807 132.785 30.5807ZM132.723 22.7477H126.893V38.9998H129.325V32.8426H132.723C135.419 32.8426 138.069 30.8966 138.069 27.7954C138.069 24.6947 135.419 22.7477 132.723 22.7477ZM100.936 37.1569C99.2558 37.1569 97.8493 35.7533 97.8493 33.8272C97.8493 31.8788 99.2558 30.4553 100.936 30.4553C102.596 30.4553 103.898 31.8788 103.898 33.8272C103.898 35.7533 102.596 37.1569 100.936 37.1569ZM103.73 29.5124H103.646C103.1 28.8633 102.049 28.2769 100.727 28.2769C97.9537 28.2769 95.4125 30.7067 95.4125 33.8272C95.4125 36.9264 97.9537 39.335 100.727 39.335C102.049 39.335 103.1 38.7484 103.646 38.0786H103.73V38.8738C103.73 40.9899 102.596 42.1203 100.768 42.1203C99.2777 42.1203 98.3536 41.0524 97.9751 40.152L95.8541 41.0316C96.4627 42.4971 98.0795 44.2988 100.768 44.2988C103.625 44.2988 106.041 42.6231 106.041 38.5387V28.612H103.73V29.5124ZM107.721 38.9998H110.157V22.7477H107.721V38.9998ZM113.748 33.6383C113.686 31.5019 115.409 30.4132 116.647 30.4132C117.614 30.4132 118.432 30.8951 118.706 31.5858L113.748 33.6383ZM121.309 31.7949C120.848 30.5599 119.44 28.2769 116.563 28.2769C113.706 28.2769 111.333 30.5178 111.333 33.8059C111.333 36.9056 113.686 39.335 116.836 39.335C119.377 39.335 120.848 37.7856 121.457 36.8847L119.567 35.6279C118.936 36.5496 118.076 37.1569 116.836 37.1569C115.597 37.1569 114.715 36.5913 114.148 35.4812L121.561 32.4236L121.309 31.7949ZM62.2415 29.9734V32.319H67.8702C67.7022 33.6383 67.2611 34.6016 66.5889 35.2719C65.7696 36.0885 64.4883 36.9894 62.2415 36.9894C58.7758 36.9894 56.0666 34.204 56.0666 30.7483C56.0666 27.2927 58.7758 24.5069 62.2415 24.5069C64.1109 24.5069 65.4757 25.2401 66.484 26.1826L68.1437 24.5277C66.7361 23.1875 64.8671 22.1613 62.2415 22.1613C57.494 22.1613 53.5035 26.015 53.5035 30.7483C53.5035 35.4812 57.494 39.335 62.2415 39.335C64.8035 39.335 66.7361 38.4971 68.2482 36.9264C69.8024 35.3766 70.2857 33.1986 70.2857 31.439C70.2857 30.8951 70.2434 30.3924 70.1594 29.9734H62.2415ZM76.6851 37.1569C75.0045 37.1569 73.5552 35.7746 73.5552 33.8059C73.5552 31.8163 75.0045 30.4553 76.6851 30.4553C78.365 30.4553 79.8144 31.8163 79.8144 33.8059C79.8144 35.7746 78.365 37.1569 76.6851 37.1569ZM76.6851 28.2769C73.6177 28.2769 71.1188 30.6015 71.1188 33.8059C71.1188 36.9894 73.6177 39.335 76.6851 39.335C79.7513 39.335 82.2507 36.9894 82.2507 33.8059C82.2507 30.6015 79.7513 28.2769 76.6851 28.2769ZM88.8262 37.1569C87.1468 37.1569 85.6969 35.7746 85.6969 33.8059C85.6969 31.8163 87.1468 30.4553 88.8262 30.4553C90.5068 30.4553 91.9556 31.8163 91.9556 33.8059C91.9556 35.7746 90.5068 37.1569 88.8262 37.1569ZM88.8262 28.2769C85.76 28.2769 83.2611 30.6015 83.2611 33.8059C83.2611 36.9894 85.76 39.335 88.8262 39.335C91.8936 39.335 94.3925 36.9894 94.3925 33.8059C94.3925 30.6015 91.8936 28.2769 88.8262 28.2769Z" fill="white"/>
<path d="M57.9843 17.2051C56.8154 17.2051 55.8101 16.795 54.9995 15.9868C54.1885 15.1781 53.7778 14.1656 53.7778 12.9882C53.7778 11.8108 54.1887 10.8 54.9995 9.98956C55.8101 9.18128 56.8154 8.77132 57.9843 8.77132C58.5797 8.77132 59.1355 8.87388 59.6666 9.08743C60.1979 9.30101 60.6326 9.5975 60.9749 9.9855L61.0556 10.0772L60.1438 10.9861L60.0526 10.8744C59.8256 10.5963 59.5369 10.3802 59.1711 10.2232C58.8066 10.0665 58.4073 9.99413 57.9843 9.99413C57.161 9.99413 56.4779 10.2729 55.9075 10.8396C55.9074 10.8398 55.9071 10.8398 55.907 10.8399C55.3495 11.4181 55.0692 12.122 55.0692 12.9882C55.0692 13.8551 55.3499 14.5592 55.908 15.1375C56.4784 15.704 57.1614 15.9843 57.9842 15.9843C58.7379 15.9843 59.3611 15.7745 59.8512 15.3592H59.8514C60.3076 14.9727 60.5814 14.4503 60.6782 13.7845H57.8539V12.586H61.8989L61.9162 12.6957C61.9494 12.9064 61.9728 13.1097 61.9728 13.3051C61.9728 14.4233 61.6309 15.3361 60.9601 16.0077C60.2029 16.8081 59.2071 17.2051 57.9842 17.2051L57.9843 17.2051ZM93.1084 17.2051C91.9378 17.2051 90.9441 16.7948 90.144 15.9868C90.1439 15.9867 90.1438 15.9867 90.1437 15.9866C90.1436 15.9865 90.1436 15.9864 90.1434 15.9863C89.3422 15.1871 88.9447 14.1743 88.9447 12.9882C88.9447 11.8021 89.3422 10.7893 90.1434 9.99006C90.1435 9.98997 90.1436 9.98993 90.1437 9.9898L90.144 9.98954C90.9442 9.18146 91.9378 8.7713 93.1084 8.7713C94.2767 8.7713 95.2706 9.18156 96.0707 10.0017C96.8722 10.8008 97.27 11.8117 97.27 12.9882C97.27 14.1743 96.8725 15.1871 96.0712 15.9863L96.071 15.9866C95.2704 16.7951 94.2672 17.2051 93.1084 17.2051L93.1084 17.2051ZM63.1303 17.0304V8.94601H63.2607H67.9724V10.1688H64.3994V12.389H67.622V13.5874H64.3994V15.8096H67.9724V17.0304H63.1303ZM70.9357 17.0304V10.1688H68.7439V8.94601H74.3967V10.1688H74.2663H72.2048V17.0304H70.9357ZM78.0093 17.0304V8.94601H79.2784V9.07601V17.0304H78.0093ZM82.473 17.0304V10.1688H80.2811V8.94601H85.9339V10.1688H85.8036H83.7421V17.0304H82.473ZM98.3965 17.0304V8.94601H99.8275L103.47 14.76L103.438 13.6562V8.94601H104.707V17.0304H103.451L99.6343 10.9227L99.6656 12.0256V12.0274V17.0304H98.3965ZM93.1084 15.9843C93.9316 15.9843 94.6037 15.7043 95.1515 15.1385L95.1523 15.1375L95.1531 15.1367C95.7087 14.5825 95.9806 13.8691 95.9806 12.9882C95.9806 12.1094 95.7086 11.3935 95.1531 10.8396L95.1523 10.8388L95.1515 10.838C94.6038 10.2724 93.9318 9.99405 93.1084 9.99405C92.2835 9.99405 91.6116 10.2719 91.0535 10.8375L91.053 10.838C90.5076 11.4054 90.2361 12.1096 90.2361 12.9881C90.2361 13.8688 90.5075 14.5707 91.053 15.1382L91.0535 15.1387C91.6117 15.7045 92.2837 15.9842 93.1084 15.9842V15.9843Z" fill="white"/>
<path d="M27.0031 25.2505L13.1232 39.9405C13.1238 39.9435 13.1248 39.9461 13.1253 39.9491C13.551 41.5442 15.012 42.7188 16.7461 42.7188C17.4393 42.7188 18.0901 42.5319 18.6482 42.2038L18.6925 42.1779L34.3161 33.1882L27.0031 25.2505Z" fill="#EA4335"/>
<path d="M41.0506 22.749L41.0373 22.7399L34.2922 18.8408L26.693 25.5836L34.3186 33.1865L41.0281 29.3262C42.2045 28.6929 43.003 27.4564 43.003 26.0304C43.003 24.6147 42.2151 23.3843 41.0506 22.749Z" fill="#FBBC04"/>
<path d="M13.1252 12.0594C13.0417 12.3662 12.9979 12.6875 12.9979 13.0212V38.9791C12.9979 39.3122 13.0412 39.6347 13.1257 39.9404L27.4832 25.6262L13.1252 12.0594Z" fill="#4285F4"/>
<path d="M27.106 26L34.2902 18.8383L18.6843 9.81604C18.1171 9.47726 17.455 9.28174 16.7466 9.28174C15.0126 9.28174 13.5495 10.4584 13.1238 12.0554C13.1232 12.057 13.1232 12.058 13.1232 12.0595L27.106 26Z" fill="#34A853"/>
<rect x="0.65" y="0.65" width="174.7" height="50.7" rx="25.35" stroke="url(#paint0_linear_4832_13745)" stroke-width="1.3"/>
<defs>
<linearGradient id="paint0_linear_4832_13745" x1="0" y1="0" x2="59.2004" y2="113.124" gradientUnits="userSpaceOnUse">
<stop stop-color="#75FFEE"/>
<stop offset="0.3125" stop-color="#A771FF"/>
<stop offset="0.578125" stop-color="#FC5CFF"/>
<stop offset="1" stop-color="#FF4747" stop-opacity="0.6"/>
</linearGradient>
</defs>
</svg>
