<svg width="156" height="52" viewBox="0 0 156 52" fill="none" xmlns="http://www.w3.org/2000/svg">
<rect x="0.65" y="0.65" width="154.7" height="50.7" rx="25.35" fill="#262626"/>
<path d="M105.985 24.9615V27.9398H104.118V29.893H105.985V36.5294C105.985 38.7955 107.01 39.702 109.589 39.702C110.042 39.702 110.474 39.648 110.851 39.5833V37.6517C110.528 37.6841 110.323 37.7056 109.967 37.7056C108.812 37.7056 108.305 37.1661 108.305 35.9359V29.893H110.851V27.9398H108.305V24.9615H105.985Z" fill="white"/>
<path d="M117.421 39.8639C120.853 39.8639 122.957 37.5654 122.957 33.7561C122.957 29.9685 120.842 27.6592 117.421 27.6592C113.99 27.6592 111.875 29.9685 111.875 33.7561C111.875 37.5654 113.979 39.8639 117.421 39.8639ZM117.421 37.8028C115.403 37.8028 114.27 36.3244 114.27 33.7561C114.27 31.2095 115.403 29.7203 117.421 29.7203C119.429 29.7203 120.572 31.2095 120.572 33.7561C120.572 36.3136 119.429 37.8028 117.421 37.8028Z" fill="white"/>
<path d="M124.758 39.6372H127.078V32.6986C127.078 31.0476 128.319 29.9361 130.078 29.9361C130.488 29.9361 131.178 30.0117 131.372 30.0764V27.7887C131.124 27.724 130.682 27.6916 130.337 27.6916C128.804 27.6916 127.498 28.5333 127.164 29.6879H126.991V27.8858H124.758V39.6372Z" fill="white"/>
<path d="M137.133 29.634C138.849 29.634 139.971 30.8318 140.025 32.677H134.09C134.22 30.8426 135.417 29.634 137.133 29.634ZM140.014 36.4647C139.583 37.3819 138.622 37.8891 137.219 37.8891C135.363 37.8891 134.166 36.5834 134.09 34.5223V34.3928H142.388V33.5835C142.388 29.893 140.414 27.6592 137.144 27.6592C133.831 27.6592 131.727 30.044 131.727 33.7993C131.727 37.5546 133.788 39.8639 137.155 39.8639C139.842 39.8639 141.719 38.5689 142.248 36.4647H140.014Z" fill="white"/>
<path d="M90.77 35.2976C90.949 38.1832 93.3536 40.0287 96.9327 40.0287C100.758 40.0287 103.151 38.0938 103.151 35.0068C103.151 32.5798 101.787 31.2376 98.4762 30.4659L96.6978 30.0297C94.5951 29.5376 93.7451 28.8777 93.7451 27.7257C93.7451 26.2717 95.0649 25.321 97.0445 25.321C98.9236 25.321 100.221 26.2493 100.456 27.7369H102.894C102.749 25.019 100.355 23.1064 97.0781 23.1064C93.555 23.1064 91.2062 25.019 91.2062 27.8934C91.2062 30.2646 92.5372 31.6738 95.4563 32.3561L97.5367 32.8594C99.6729 33.3627 100.612 34.1009 100.612 35.3312C100.612 36.7628 99.1361 37.803 97.1228 37.803C94.9642 37.803 93.4655 36.8299 93.253 35.2976H90.77Z" fill="white"/>
<path d="M66.7365 27.6916C65.1394 27.6916 63.7581 28.4901 63.0459 29.8282H62.8733V27.8858H60.6395V43.5436H62.9596V37.8567H63.1431C63.7581 39.0977 65.0854 39.8315 66.758 39.8315C69.7256 39.8315 71.614 37.4898 71.614 33.7561C71.614 30.0224 69.7256 27.6916 66.7365 27.6916ZM66.0782 37.7488C64.1358 37.7488 62.9164 36.2165 62.9164 33.7669C62.9164 31.3066 64.1358 29.7743 66.089 29.7743C68.053 29.7743 69.2292 31.2742 69.2292 33.7561C69.2292 36.2489 68.053 37.7488 66.0782 37.7488Z" fill="white"/>
<path d="M79.7323 27.6916C78.1352 27.6916 76.754 28.4901 76.0418 29.8282H75.8691V27.8858H73.6354V43.5436H75.9554V37.8567H76.1389C76.754 39.0977 78.0813 39.8315 79.7539 39.8315C82.7214 39.8315 84.6098 37.4898 84.6098 33.7561C84.6098 30.0224 82.7214 27.6916 79.7323 27.6916ZM79.0741 37.7488C77.1317 37.7488 75.9123 36.2165 75.9123 33.7669C75.9123 31.3066 77.1317 29.7743 79.0848 29.7743C81.0488 29.7743 82.225 31.2742 82.225 33.7561C82.225 36.2489 81.0488 37.7488 79.0741 37.7488Z" fill="white"/>
<path d="M56.4769 39.6372H59.1389L53.3117 23.4979H50.6162L44.7891 39.6372H47.3615L48.8491 35.3535H55.0006L56.4769 39.6372ZM51.8353 26.4283H52.0255L54.3631 33.2509H49.4866L51.8353 26.4283Z" fill="white"/>
<path d="M46.3516 11.3245V19.1102H49.1626C51.4827 19.1102 52.8262 17.6804 52.8262 15.1931C52.8262 12.7435 51.4719 11.3245 49.1626 11.3245H46.3516ZM47.5602 12.4252H49.0277C50.641 12.4252 51.596 13.4503 51.596 15.2093C51.596 16.9952 50.6572 18.0095 49.0277 18.0095H47.5602V12.4252Z" fill="white"/>
<path d="M56.9408 19.2235C58.6566 19.2235 59.7087 18.0743 59.7087 16.1697C59.7087 14.2758 58.6512 13.1212 56.9408 13.1212C55.225 13.1212 54.1675 14.2758 54.1675 16.1697C54.1675 18.0743 55.2196 19.2235 56.9408 19.2235ZM56.9408 18.193C55.9318 18.193 55.3653 17.4538 55.3653 16.1697C55.3653 14.8963 55.9318 14.1517 56.9408 14.1517C57.9444 14.1517 58.5163 14.8963 58.5163 16.1697C58.5163 17.4484 57.9444 18.193 56.9408 18.193Z" fill="white"/>
<path d="M68.6685 13.2345H67.5084L66.4617 17.7182H66.37L65.1614 13.2345H64.0499L62.8413 17.7182H62.755L61.7029 13.2345H60.5266L62.1453 19.1102H63.3377L64.5463 14.783H64.638L65.852 19.1102H67.0552L68.6685 13.2345Z" fill="white"/>
<path d="M70.0044 19.1102H71.1644V15.6733C71.1644 14.756 71.7094 14.1841 72.5673 14.1841C73.4251 14.1841 73.8352 14.6535 73.8352 15.5977V19.1102H74.9952V15.3064C74.9952 13.9089 74.2722 13.1212 72.9611 13.1212C72.0763 13.1212 71.4935 13.5151 71.2076 14.1679H71.1213V13.2345H70.0044V19.1102Z" fill="white"/>
<path d="M76.8222 19.1102H77.9822V10.9414H76.8222V19.1102Z" fill="white"/>
<path d="M82.345 19.2235C84.0608 19.2235 85.1129 18.0743 85.1129 16.1697C85.1129 14.2758 84.0554 13.1212 82.345 13.1212C80.6292 13.1212 79.5717 14.2758 79.5717 16.1697C79.5717 18.0743 80.6238 19.2235 82.345 19.2235ZM82.345 18.193C81.336 18.193 80.7695 17.4538 80.7695 16.1697C80.7695 14.8963 81.336 14.1517 82.345 14.1517C83.3486 14.1517 83.9205 14.8963 83.9205 16.1697C83.9205 17.4484 83.3486 18.193 82.345 18.193Z" fill="white"/>
<path d="M88.5692 18.2307C87.938 18.2307 87.4794 17.9232 87.4794 17.3944C87.4794 16.8765 87.8462 16.6013 88.6556 16.5473L90.0908 16.4556V16.9466C90.0908 17.675 89.4433 18.2307 88.5692 18.2307ZM88.2725 19.2073C89.0441 19.2073 89.6861 18.8728 90.0368 18.2847H90.1285V19.1102H91.2454V15.0959C91.2454 13.855 90.4145 13.1212 88.9415 13.1212C87.6088 13.1212 86.6592 13.7687 86.5405 14.7776H87.6628C87.7923 14.3622 88.2401 14.1248 88.8876 14.1248C89.6807 14.1248 90.0908 14.4755 90.0908 15.0959V15.6031L88.4991 15.6948C87.1017 15.7812 86.3139 16.3909 86.3139 17.4484C86.3139 18.5221 87.1394 19.2073 88.2725 19.2073Z" fill="white"/>
<path d="M95.182 19.2073C95.9913 19.2073 96.6765 18.8242 97.0272 18.1822H97.119V19.1102H98.2304V10.9414H97.0704V14.1679H96.9841C96.6657 13.5205 95.9859 13.1374 95.182 13.1374C93.6982 13.1374 92.7432 14.3136 92.7432 16.1697C92.7432 18.0311 93.6874 19.2073 95.182 19.2073ZM95.5111 14.1787C96.4823 14.1787 97.092 14.9503 97.092 16.175C97.092 17.4052 96.4877 18.166 95.5111 18.166C94.5291 18.166 93.941 17.416 93.941 16.1697C93.941 14.9341 94.5345 14.1787 95.5111 14.1787Z" fill="white"/>
<path d="M105.753 19.2235C107.469 19.2235 108.521 18.0743 108.521 16.1697C108.521 14.2758 107.463 13.1212 105.753 13.1212C104.037 13.1212 102.98 14.2758 102.98 16.1697C102.98 18.0743 104.032 19.2235 105.753 19.2235ZM105.753 18.193C104.744 18.193 104.177 17.4538 104.177 16.1697C104.177 14.8963 104.744 14.1517 105.753 14.1517C106.756 14.1517 107.328 14.8963 107.328 16.1697C107.328 17.4484 106.756 18.193 105.753 18.193Z" fill="white"/>
<path d="M110.056 19.1102H111.216V15.6733C111.216 14.756 111.761 14.1841 112.619 14.1841C113.477 14.1841 113.887 14.6535 113.887 15.5977V19.1102H115.047V15.3064C115.047 13.9089 114.324 13.1212 113.013 13.1212C112.128 13.1212 111.545 13.5151 111.26 14.1679H111.173V13.2345H110.056V19.1102Z" fill="white"/>
<path d="M120.39 11.7723V13.2615H119.456V14.2381H120.39V17.5563C120.39 18.6894 120.902 19.1426 122.192 19.1426C122.419 19.1426 122.634 19.1156 122.823 19.0832V18.1174C122.661 18.1336 122.559 18.1444 122.381 18.1444C121.803 18.1444 121.55 17.8746 121.55 17.2595V14.2381H122.823V13.2615H121.55V11.7723H120.39Z" fill="white"/>
<path d="M124.38 19.1102H125.54V15.6787C125.54 14.7884 126.069 14.1895 127.019 14.1895C127.839 14.1895 128.276 14.6643 128.276 15.6031V19.1102H129.436V15.3172C129.436 13.9197 128.664 13.1266 127.413 13.1266C126.528 13.1266 125.907 13.5205 125.621 14.1787H125.53V10.9414H124.38V19.1102Z" fill="white"/>
<path d="M133.621 14.1086C134.479 14.1086 135.04 14.7075 135.067 15.6301H132.099C132.164 14.7129 132.763 14.1086 133.621 14.1086ZM135.061 17.5239C134.845 17.9825 134.365 18.2361 133.664 18.2361C132.736 18.2361 132.137 17.5833 132.099 16.5527V16.488H136.248V16.0833C136.248 14.2381 135.261 13.1212 133.626 13.1212C131.97 13.1212 130.918 14.3136 130.918 16.1912C130.918 18.0689 131.948 19.2235 133.631 19.2235C134.975 19.2235 135.914 18.576 136.178 17.5239H135.061Z" fill="white"/>
<path d="M32.2053 26.3914C32.2334 24.2061 33.407 22.1383 35.2688 20.9937C34.0943 19.3163 32.127 18.2528 30.0803 18.1887C27.8973 17.9596 25.7809 19.495 24.6685 19.495C23.5346 19.495 21.8218 18.2115 19.9775 18.2494C17.5734 18.3271 15.3323 19.6939 14.1627 21.7956C11.6485 26.1486 13.5238 32.546 15.9322 36.0645C17.1372 37.7875 18.5455 39.7121 20.3881 39.6438C22.1913 39.569 22.8648 38.494 25.0414 38.494C27.1977 38.494 27.8296 39.6438 29.7097 39.6004C31.6446 39.569 32.8636 37.8698 34.0263 36.1306C34.8921 34.9029 35.5583 33.5461 36.0003 32.1103C33.7264 31.1486 32.2079 28.8603 32.2053 26.3914Z" fill="white"/>
<path d="M28.6541 15.8747C29.7091 14.6082 30.2288 12.9804 30.103 11.3369C28.4912 11.5062 27.0024 12.2765 25.9331 13.4944C24.8875 14.6843 24.3434 16.2835 24.4463 17.8642C26.0587 17.8808 27.6437 17.1314 28.6541 15.8747Z" fill="white"/>
<rect x="0.65" y="0.65" width="154.7" height="50.7" rx="25.35" stroke="url(#paint0_linear_4832_13746)" stroke-width="1.3"/>
<defs>
<linearGradient id="paint0_linear_4832_13746" x1="0" y1="0" x2="63.0894" y2="106.856" gradientUnits="userSpaceOnUse">
<stop stop-color="#75FFEE"/>
<stop offset="0.3125" stop-color="#A771FF"/>
<stop offset="0.578125" stop-color="#FC5CFF"/>
<stop offset="1" stop-color="#FF4747" stop-opacity="0.6"/>
</linearGradient>
</defs>
</svg>
