<svg width="32" height="31" viewBox="0 0 32 31" fill="none" xmlns="http://www.w3.org/2000/svg">
<path d="M27.5777 10.7576C27.5647 9.78546 27.3827 8.82297 27.0398 7.9132C26.7425 7.14581 26.2883 6.44889 25.7064 5.86695C25.1245 5.28502 24.4275 4.83087 23.6602 4.53353C22.7621 4.19641 21.8133 4.01412 20.8542 3.99443C19.6194 3.93923 19.228 3.92383 16.0934 3.92383C12.9589 3.92383 12.5572 3.92383 11.3314 3.99443C10.3727 4.01426 9.4244 4.19655 8.52673 4.53353C7.75922 4.83067 7.06219 5.28474 6.48023 5.8667C5.89826 6.44866 5.44419 7.14569 5.14705 7.9132C4.80926 8.8106 4.62736 9.75913 4.60923 10.7178C4.55404 11.9539 4.53735 12.3454 4.53735 15.4799C4.53735 18.6144 4.53735 19.0149 4.60923 20.242C4.62849 21.2021 4.80947 22.1494 5.14705 23.0492C5.44469 23.8165 5.8991 24.5132 6.48126 25.0949C7.06341 25.6767 7.76051 26.1305 8.52801 26.4276C9.42322 26.7783 10.3717 26.9736 11.3326 27.0052C12.5687 27.0604 12.9602 27.0771 16.0947 27.0771C19.2292 27.0771 19.631 27.0771 20.8568 27.0052C21.8158 26.9863 22.7647 26.8045 23.6627 26.4674C24.4299 26.1697 25.1267 25.7154 25.7086 25.1335C26.2904 24.5516 26.7447 23.8549 27.0424 23.0877C27.38 22.1892 27.561 21.2419 27.5802 20.2805C27.6354 19.0457 27.6521 18.6542 27.6521 15.5184C27.6495 12.3839 27.6495 11.986 27.5777 10.7576ZM16.0857 21.4075C12.8075 21.4075 10.1517 18.7518 10.1517 15.4735C10.1517 12.1952 12.8075 9.5395 16.0857 9.5395C17.6595 9.5395 19.1689 10.1647 20.2817 11.2775C21.3946 12.3904 22.0197 13.8997 22.0197 15.4735C22.0197 17.0473 21.3946 18.5566 20.2817 19.6695C19.1689 20.7823 17.6595 21.4075 16.0857 21.4075ZM22.2559 10.7037C21.4896 10.7037 20.8722 10.085 20.8722 9.32001C20.8722 9.13838 20.908 8.95853 20.9775 8.79073C21.047 8.62293 21.1489 8.47047 21.2773 8.34204C21.4057 8.21361 21.5582 8.11173 21.726 8.04223C21.8938 7.97272 22.0737 7.93695 22.2553 7.93695C22.4369 7.93695 22.6168 7.97272 22.7846 8.04223C22.9524 8.11173 23.1048 8.21361 23.2333 8.34204C23.3617 8.47047 23.4636 8.62293 23.5331 8.79073C23.6026 8.95853 23.6383 9.13838 23.6383 9.32001C23.6383 10.085 23.0197 10.7037 22.2559 10.7037Z" fill="white"/>
<path d="M16.0834 19.327C18.2122 19.327 19.938 17.6012 19.938 15.4724C19.938 13.3436 18.2122 11.6178 16.0834 11.6178C13.9546 11.6178 12.2288 13.3436 12.2288 15.4724C12.2288 17.6012 13.9546 19.327 16.0834 19.327Z" fill="white"/>
</svg>
