<svg width="32" height="31" viewBox="0 0 32 31" fill="none" xmlns="http://www.w3.org/2000/svg">
<path d="M25.5728 10.3611C25.5895 10.5857 25.5895 10.8091 25.5895 11.0324C25.5895 17.8675 20.3871 25.7435 10.8796 25.7435C7.95051 25.7435 5.22932 24.8951 2.93941 23.4215C3.35529 23.469 3.75577 23.4857 4.18833 23.4857C6.51546 23.4913 8.77668 22.7132 10.6075 21.2767C9.52858 21.2571 8.48265 20.9012 7.6158 20.2585C6.74895 19.6157 6.10444 18.7184 5.77227 17.6916C6.09188 17.7391 6.41278 17.7712 6.74908 17.7712C7.21245 17.7712 7.67839 17.707 8.11096 17.5954C6.94002 17.3589 5.88712 16.7243 5.13128 15.7992C4.37543 14.8742 3.96331 13.7159 3.96499 12.5214V12.4572C4.65427 12.841 5.45394 13.081 6.30111 13.1131C5.5914 12.6415 5.00947 12.0015 4.60722 11.2503C4.20497 10.4992 3.99491 9.66007 3.9958 8.80796C3.9958 7.84784 4.25123 6.9673 4.6992 6.19972C5.99836 7.79781 7.61871 9.10519 9.4553 10.0372C11.2919 10.9692 13.3038 11.505 15.3606 11.61C15.281 11.2249 15.2323 10.8258 15.2323 10.4253C15.2319 9.74621 15.3654 9.07374 15.6251 8.4463C15.8849 7.81886 16.2657 7.24876 16.7459 6.76859C17.226 6.28842 17.7961 5.90759 18.4236 5.64788C19.051 5.38817 19.7235 5.25467 20.4025 5.25501C21.8915 5.25501 23.2354 5.87883 24.1801 6.88772C25.3376 6.66389 26.4476 6.24134 27.461 5.6388C27.0751 6.83358 26.2669 7.84669 25.1877 8.48835C26.2143 8.37126 27.2176 8.10129 28.1644 7.68739C27.4573 8.71824 26.5811 9.62219 25.5728 10.3611Z" fill="white"/>
</svg>
